<svg xmlns="http://www.w3.org/2000/svg" viewBox="0 0 1600 560" font-family="Outfit, -apple-system, Helvetica, Arial, sans-serif"><rect width="100%" height="100%" fill="#0d1117" rx="16"/>
<defs><marker id="a" viewBox="0 0 10 10" refX="9" refY="5" markerWidth="8" markerHeight="8" orient="auto"><path d="M0 0L10 5L0 10z" fill="#8b98a5"/></marker></defs>
<style>.t{fill:#e6edf3;font-size:28px}.h{fill:#ffffff;font-size:30px;font-weight:600}.d{fill:#8b98a5;font-size:22px}.n{font-family:"JetBrains Mono",Menlo,monospace;font-size:26px;fill:#34d399}.box{fill:none;stroke:#8b98a5;stroke-width:3;rx:14}.cy{stroke:#6dc9f3}.gr{stroke:#34d399}.ar{stroke:#8b98a5;stroke-width:3;fill:none;marker-end:url(#a)}.fcy{fill:#6dc9f3}.fgr{fill:#34d399}</style>

<rect x="20" y="40" width="280" height="150" class="box cy"/><text x="44" y="88" class="h">resolve flow</text><text x="44" y="126" class="d">Elixir · JSON graph</text><text x="44" y="168" class="n">0.07 ms</text>
<rect x="340" y="40" width="280" height="150" class="box cy"/><text x="364" y="88" class="h">fade signature</text><text x="364" y="126" class="d">Elixir · phash2</text><text x="364" y="168" class="n">0.18 ms</text>
<rect x="660" y="40" width="280" height="150" class="box cy"/><text x="684" y="88" class="h">encode payload</text><text x="684" y="126" class="d">Elixir · iolist</text><text x="684" y="168" class="n">0.01 ms</text>
<rect x="980" y="40" width="280" height="150" class="box gr"/><text x="1004" y="88" class="h">generate LUT</text><text x="1004" y="126" class="d">C dirty NIF + GCD</text><text x="1004" y="168" class="n">0.57 ms</text>
<rect x="1300" y="40" width="280" height="150" class="box gr"/><text x="1324" y="88" class="h">device encode</text><text x="1324" y="126" class="d">C NIF · per wire format</text><text x="1324" y="168" class="n">0.01 – 0.09 ms</text>
<path d="M300 115 H340" class="ar"/><path d="M620 115 H660" class="ar"/><path d="M940 115 H980" class="ar"/><path d="M1260 115 H1300" class="ar"/>

<text x="20" y="270" class="d">share of the critical path, one target at 33³</text>
<rect x="20" y="290" width="128" height="40" class="fcy"/>
<rect x="150" y="290" width="330" height="40" class="fcy"/>
<rect x="482" y="290" width="18" height="40" class="fcy"/>
<rect x="502" y="290" width="1046" height="40" class="fgr"/>
<rect x="1550" y="290" width="30" height="40" class="fgr"/>
<text x="20" y="370" class="t">Elixir · 0.26 ms</text>
<text x="502" y="370" class="t">C · 0.59 ms</text>

<text x="20" y="460" class="h">End to end, one target:</text>
<text x="380" y="460" class="n">17³  0.42 ms</text><text x="660" y="460" class="n">33³  0.85 ms</text><text x="940" y="460" class="n">65³  4.0 ms</text>
<text x="20" y="520" class="d">Elixir's share stays 0.26 ms at every cube size. The cube math is the whole cost, and it is in C.</text>
<text x="1160" y="520" class="d">10 warm-up + 200 timed runs, 10 schedulers</text>
</svg>
